<svg width="1440" height="452" viewBox="0 0 1440 452" fill="none" xmlns="http://www.w3.org/2000/svg">
<path d="M1431.52 246.542C1427.37 246.326 1426.49 245.52 1426.43 241.286C1426.3 232.646 1426.42 224.006 1426.36 215.366C1426.36 213.509 1426.07 211.666 1426.03 211.133C1422.1 208.44 1419.16 206.424 1416.28 204.451C1415.19 205.992 1414.35 207.893 1412.91 209.002C1411.6 210.01 1409.64 210.182 1408.16 210.658C1407.83 212.99 1407.53 215.064 1407.22 217.166H1385.75C1385.29 215.784 1384.99 214.906 1384.7 214.013C1384.36 212.947 1384 211.882 1383.58 210.6C1380.4 210.6 1377.53 210.6 1374.67 210.6C1371.54 210.6 1368.43 210.701 1365.31 210.629C1359.46 210.499 1358.87 209.88 1358.74 203.861C1358.68 200.981 1358.9 198.086 1358.65 195.221C1358.24 190.123 1353.89 187.546 1349.42 189.677C1346.73 190.958 1345.79 193.306 1345.82 196.186C1345.87 200.693 1345.82 205.214 1345.82 209.981C1343.14 210.542 1341.14 210.974 1339.27 211.363C1338.78 213.581 1338.38 215.395 1337.92 217.483H1329.36V215.15C1326.35 214.603 1322.57 215.035 1321.2 213.422C1318.66 210.442 1315.89 210.701 1312.85 210.686C1307.33 210.658 1301.8 210.787 1296.29 210.643C1292.11 210.528 1291.39 209.693 1291.1 205.474C1290.97 203.558 1291.25 201.571 1290.79 199.757C1290.57 198.907 1289.07 198.389 1287.09 196.934C1287 201.312 1286.94 204.379 1286.88 207.432C1286.84 209.592 1287.04 211.781 1286.7 213.898C1286.55 214.805 1285.23 216.187 1284.51 216.158C1283.36 216.101 1281.86 215.266 1281.27 214.301C1280.61 213.192 1280.78 211.579 1280.61 210.283C1278.79 209.894 1277.28 209.563 1275.65 209.218C1275.32 205.834 1275.03 202.795 1274.72 199.555H1267.17C1266.9 202.709 1266.67 205.488 1266.44 208.138C1261.35 208.814 1262.82 204.264 1261.14 202.45C1258.08 201.47 1254.18 203.04 1252.25 198.95C1251.88 198.158 1249.66 197.885 1248.32 197.957C1244.29 198.202 1240.27 198.706 1236.25 199.166C1235.59 199.238 1234.96 199.613 1234.42 199.814C1233.82 201.514 1233.29 203.04 1232.52 205.157H1214.22C1213.46 207.85 1212.91 209.822 1212.29 211.997C1208.84 211.997 1205.73 212.083 1202.63 211.968C1200.43 211.882 1199.12 210.6 1198.93 208.339C1198.74 206.021 1198.61 203.688 1198.44 201.082C1195.85 200.966 1193.73 200.794 1191.61 200.779C1183.22 200.75 1174.81 200.693 1166.41 200.794C1162.53 200.837 1158.18 199.526 1155.46 204.005C1155.1 204.595 1153.71 204.754 1152.79 204.768C1147.75 204.854 1142.65 204.336 1137.7 204.984C1132.63 205.646 1128.21 202.594 1123.26 203.314C1122.68 203.4 1121.83 202.896 1121.4 202.406C1119.05 199.728 1116.98 200.16 1114.85 202.694C1114.44 203.17 1113.58 203.501 1112.92 203.501C1108.19 203.443 1103.43 204.048 1098.46 203.069C1098.14 197.77 1097.86 192.888 1097.54 187.762C1091.27 187.762 1085.77 187.877 1080.26 187.718C1076.57 187.618 1072.58 188.856 1069.5 185.357C1068.93 184.694 1067.23 184.939 1066.05 184.91C1063.64 184.853 1061.25 184.91 1058.85 184.882C1052.6 184.824 1048.97 181.598 1047.74 174.816C1044.83 174.802 1041.71 173.477 1039.98 177.667C1039.61 178.56 1037.04 178.819 1035.46 178.891C1031.21 179.093 1026.95 179.035 1022.34 179.078C1022.15 182.534 1022.17 185.386 1021.75 188.179C1021.62 188.986 1020.34 189.821 1019.4 190.181C1019.09 190.31 1017.79 189.072 1017.69 188.366C1017.29 185.515 1017.2 182.606 1014.31 180.49C1008.59 181.051 1002.22 178.387 996.81 183.168C996.234 183.672 994.953 183.442 994.002 183.427C985.621 183.283 977.241 183.125 968.874 182.966C968.212 182.966 967.362 182.722 966.901 183.024C962.466 185.962 957.628 184.478 952.934 184.378C952.53 184.378 952.127 183.917 951.681 183.643C951.148 181.714 950.615 179.741 950.025 177.595C936.229 177.595 922.809 177.595 909.374 177.595C906.018 177.595 902.649 177.566 899.294 177.509C896.702 177.466 895.319 176.054 895.132 173.52C895.017 172.094 895.045 170.64 895.045 169.2C895.045 162.475 895.146 155.765 895.045 149.04C894.959 142.574 895.333 136.21 893.807 129.672C892.425 123.768 890.178 118.152 888.839 112.277C888.796 112.061 888.033 112.018 887.414 111.83C885.383 114.422 887.889 118.987 884.073 121.061C883.453 120.413 882.892 120.11 882.849 119.736C877.506 79.8624 872.207 39.9888 866.893 0C866.26 5.2992 865.54 10.4976 865.021 15.696C864.359 22.3488 863.985 29.0448 863.25 35.6832C862.012 46.8288 860.471 57.9312 859.29 69.0912C858.109 80.2512 857.217 91.44 856.165 102.614C855.734 107.122 855.244 111.629 854.754 116.136C854.481 118.642 854.423 121.291 851.154 122.717C850.031 119.318 849.009 116.28 848.001 113.242C846.129 116.122 845.034 119.016 844.948 121.925C844.833 126.014 843.493 128.822 839.461 129.557C839.087 134.722 837.546 138.422 834.839 140.659C839.591 141.379 840.729 144.389 840.354 148.392C839.893 153.274 839.562 158.17 839.174 162.936C832.953 164.246 826.847 162.13 820.986 164.405C819.431 172.526 821.62 180.749 819.532 189.029C816.738 188.87 814.434 188.741 811.785 188.597C811.511 184.334 811.266 180.59 810.993 176.429C806.471 176.184 802.252 175.939 798.004 175.709C797.241 173.405 796.564 171.389 795.901 169.387C795.527 169.474 795.138 169.546 794.764 169.632C794.562 176.443 794.361 183.269 794.145 190.714C791.351 190.454 789.378 190.282 787.017 190.066V159.682C783.359 158.818 781.732 156.47 781.271 153.072C779.802 142.229 775.713 132.278 770.414 122.818C762.594 108.864 751.708 97.8192 737.193 91.0944C732.153 88.7616 730.007 86.2272 730.669 81C730.727 80.5392 730.525 80.064 730.396 79.2432C728.149 78.2208 726.407 76.8096 726.522 73.5264C726.868 63.9936 726.767 54.4752 725.039 45.0144C724.535 42.2496 724.233 39.7872 721.554 38.4624C718.847 37.1232 717.738 35.1072 717.853 32.1264C717.954 29.5632 718.473 26.7264 714.757 25.776C714.109 25.6032 713.634 23.7744 713.533 22.68C713.346 20.5488 713.476 18.3888 713.476 16.3872C709.228 14.2848 708.393 13.392 709.487 9.3456C710.293 6.3792 709.991 3.9888 708.321 1.1088C707.932 3.9744 706.42 6.0048 707.572 9C708.58 11.6208 709.141 15.192 704.893 16.8048C704.13 17.0928 704.044 19.296 703.756 20.6496C703.41 22.248 703.569 25.0416 702.834 25.2864C698.629 26.6832 699.321 29.952 699.306 32.976C699.306 35.4096 698.298 37.008 696.167 38.1744C694.266 39.2112 692.438 40.4928 692.365 43.0128C692.164 50.3856 689.658 57.5424 690.522 65.0448C690.882 68.1264 690.666 71.28 690.522 74.3904C690.479 75.5136 690.148 77.3856 689.514 77.6016C685.655 78.912 686.461 82.008 686.476 84.7584C686.476 87.2064 685.511 88.8768 683.279 89.856C682.185 90.3312 681.133 90.9216 680.039 91.4256C667.31 97.3872 657.474 106.646 649.986 118.397C643.117 129.197 638.322 140.89 635.989 153.518C635.73 154.886 635.485 156.413 634.708 157.493C634.161 158.256 632.749 158.414 631.266 159.034V190.195H619.646C620.711 167.904 620.178 124.531 618.681 118.67C611.38 118.67 603.964 118.656 596.548 118.685C595.612 118.685 594.589 118.771 593.754 119.146C591.249 120.254 588.801 121.522 585.849 122.976C585.791 123.307 585.532 124.214 585.517 125.136C585.071 144.504 584.653 163.872 584.207 183.24C584.149 185.544 583.933 187.848 583.746 190.8H557.639C556.905 193.493 556.372 195.48 555.724 197.827C552.109 197.827 548.754 197.64 545.428 197.885C542.447 198.101 539.509 197.179 536.457 199.138C533.879 200.794 530.322 200.909 527.14 201.715C526.593 203.112 526.017 204.624 525.498 205.978C516.743 206.712 516.455 206.453 516.369 198.374C516.326 194.616 516.239 190.843 516.167 186.754C511.602 186.71 507.628 185.328 504.186 187.819C504.402 192.082 504.834 195.883 504.748 199.67C504.633 204.653 503.149 205.373 497.793 203.486C497.577 200.506 497.361 197.453 497.116 194.04H482.903C482.169 195.826 481.564 197.323 480.829 199.138C469.151 199.138 457.645 199.138 446.154 199.138C443.721 199.138 442.007 198.216 441.546 195.581C441.359 194.472 440.898 193.406 440.524 192.24C436.909 192.47 433.554 191.491 430.415 193.046C430.257 193.968 430.156 194.688 430.026 195.379C429.191 199.987 428.975 200.218 424.813 200.592C423.388 200.722 421.948 200.693 420.522 200.837C420.105 200.88 419.716 201.269 418.895 201.73V207.288C416.677 207.518 414.834 207.864 412.977 207.864C394.501 207.907 376.026 207.907 357.551 207.864C355.665 207.864 353.577 207.95 351.964 207.173C350.711 206.582 350.077 204.71 349.199 203.458C342.921 203.846 336.973 202.579 331.285 204.25C330.911 207.461 330.58 210.24 330.234 213.178C325.295 213.653 320.874 214.358 316.05 212.501C316.05 210.01 316.05 207.634 316.05 205.258C316.05 195.898 316.021 186.538 316.05 177.178C316.079 171.36 314.985 166.176 309.714 162.547C308.562 161.755 307.943 159.696 307.713 158.126C306.978 153.418 306.604 148.637 306.013 143.899C305.005 135.85 303.925 127.814 302.874 119.779C301.002 127.138 300.311 134.554 298.525 141.696C296.754 148.766 297.229 156.427 293.413 163.44H265.679C264.181 167.198 262.583 170.323 261.733 173.621C261.157 175.867 261.705 178.402 261.561 180.792C261.417 183.384 261.82 186.408 260.625 188.453C258.997 191.246 262.209 192.139 261.863 194.515C261.215 198.979 261.733 203.602 261.661 208.166C261.633 210.067 261.791 212.155 261.028 213.782C260.452 215.021 258.58 215.669 257.572 216.36C257.341 219.96 257.154 222.984 256.953 226.267C252.517 226.526 248.759 226.742 245.101 226.944C244.338 232.027 244.338 232.142 240.853 232.272C238.305 232.373 235.741 232.114 232.703 231.998V211.752C230.514 208.958 229.002 207.144 227.62 205.243C224.365 200.779 220.06 197.986 214.674 196.79C203.932 194.414 192.556 203.371 192.455 214.301C192.412 218.621 192.57 222.941 192.34 227.261C192.282 228.456 191.447 230.112 190.482 230.602C189.532 231.077 187.977 230.328 186.681 230.112C186.407 226.368 186.177 223.114 185.946 219.917H171.877C169.933 222.206 171.993 225.547 168.162 226.541C167.01 225.216 165.729 223.733 164.087 221.832C163.237 223.056 162.604 223.718 162.258 224.496C161.394 226.411 159.839 226.642 158.068 226.325C156.167 225.994 154.943 224.798 154.986 222.912C155.145 216.778 151.199 212.285 148.607 207.389C145.453 201.427 139.765 198.734 132.94 199.325C124.919 200.016 119.994 204.739 116.898 211.91C114.033 218.549 110.692 220.651 103.722 220.781C102.325 220.81 100.943 221.054 99.5606 221.184C98.927 223.027 98.3942 224.568 97.6887 226.584C94.8086 226.584 91.9574 226.714 89.1206 226.512C88.0694 226.44 86.8598 225.835 86.0678 225.115C82.511 221.846 82.511 221.731 78.0614 224.222C75.7862 225.504 74.1158 225.706 72.791 223.013C72.359 222.134 71.3222 221.558 69.9686 220.291C69.335 222.062 69.1334 223.2 68.543 224.064C67.9526 224.928 66.9734 225.518 66.1526 226.224C65.4758 225.374 64.3238 224.568 64.2086 223.646C63.863 220.608 63.8918 217.526 63.7622 213.725H56.3174C45.0422 213.725 33.7526 213.624 22.4774 213.782C19.0214 213.84 16.4582 213.062 15.5078 209.189H0.877441V451.109H1440.88V246.629C1437.75 246.629 1434.63 246.73 1431.52 246.571V246.542ZM20.1302 326.52C19.7846 326.477 19.4534 326.448 19.1078 326.405C19.4534 326.434 19.799 326.477 20.1446 326.506L20.1302 326.52ZM610.113 159.077C606.916 160.546 604.309 160.805 601.343 158.818C601.343 154.627 601.213 150.365 601.386 146.117C601.516 142.862 602.898 141.48 605.49 141.35C608.341 141.206 609.94 142.762 610.069 146.347C610.228 150.581 610.113 154.829 610.113 159.077ZM877.909 178.805H870.004C869.701 177.12 869.212 175.55 869.183 173.981C869.097 168.466 869.039 162.95 869.226 157.45C869.341 154.195 870.81 152.827 873.474 152.798C876.153 152.755 877.78 154.138 877.852 157.306C878.025 164.203 877.909 171.101 877.909 178.805ZM1117.78 202.925C1117.71 202.939 1117.61 202.954 1117.53 202.954C1117.61 202.954 1117.7 202.939 1117.78 202.925ZM1356.95 197.813C1356.78 197.438 1356.68 196.92 1356.38 196.747C1356.68 196.92 1356.77 197.438 1356.95 197.813Z" fill="#FFF6EA"/>
</svg>
