<svg width="1440" height="272" viewBox="0 0 1440 272" fill="none" xmlns="http://www.w3.org/2000/svg">
<g clip-path="url(#clip0_32_729)">
<path d="M1430.64 246.542C1426.49 246.326 1425.61 245.52 1425.56 241.286C1425.43 232.646 1425.54 224.006 1425.48 215.366C1425.48 213.509 1425.2 211.666 1425.15 211.133C1421.22 208.44 1418.28 206.424 1415.4 204.451C1414.31 205.992 1413.48 207.893 1412.04 209.002C1410.72 210.01 1408.77 210.182 1407.28 210.658C1406.95 212.99 1406.65 215.064 1406.35 217.166H1384.88C1384.42 215.784 1384.11 214.906 1383.83 214.013C1383.48 212.947 1383.12 211.882 1382.7 210.6C1379.52 210.6 1376.65 210.6 1373.79 210.6C1370.66 210.6 1367.55 210.701 1364.43 210.629C1358.58 210.499 1357.99 209.88 1357.86 203.861C1357.8 200.981 1358.02 198.086 1357.78 195.221C1357.36 190.123 1353.01 187.546 1348.55 189.677C1345.85 190.958 1344.92 193.306 1344.95 196.186C1344.99 200.693 1344.95 205.214 1344.95 209.981C1342.27 210.542 1340.27 210.974 1338.39 211.363C1337.9 213.581 1337.5 215.395 1337.04 217.483H1328.49V215.15C1325.48 214.603 1321.69 215.035 1320.32 213.422C1317.79 210.442 1315.01 210.701 1311.97 210.686C1306.45 210.658 1300.92 210.787 1295.41 210.643C1291.23 210.528 1290.51 209.693 1290.23 205.474C1290.1 203.558 1290.37 201.571 1289.91 199.757C1289.69 198.907 1288.2 198.389 1286.21 196.934C1286.12 201.312 1286.06 204.379 1286.01 207.432C1285.96 209.592 1286.16 211.781 1285.82 213.898C1285.68 214.805 1284.35 216.187 1283.63 216.158C1282.48 216.101 1280.98 215.266 1280.39 214.301C1279.73 213.192 1279.9 211.579 1279.73 210.283C1277.91 209.894 1276.4 209.563 1274.77 209.218C1274.44 205.834 1274.16 202.795 1273.84 199.555H1266.29C1266.02 202.709 1265.79 205.488 1265.56 208.138C1260.48 208.814 1261.94 204.264 1260.26 202.45C1257.21 201.47 1253.3 203.04 1251.37 198.95C1251 198.158 1248.78 197.885 1247.44 197.957C1243.41 198.202 1239.39 198.706 1235.38 199.166C1234.71 199.238 1234.08 199.613 1233.55 199.814C1232.94 201.514 1232.41 203.04 1231.65 205.157H1213.34C1212.58 207.85 1212.03 209.822 1211.41 211.997C1207.96 211.997 1204.85 212.083 1201.75 211.968C1199.55 211.882 1198.24 210.6 1198.05 208.339C1197.86 206.021 1197.73 203.688 1197.56 201.082C1194.97 200.966 1192.85 200.794 1190.74 200.779C1182.34 200.75 1173.93 200.693 1165.54 200.794C1161.65 200.837 1157.3 199.526 1154.58 204.005C1154.22 204.595 1152.84 204.754 1151.91 204.768C1146.87 204.854 1141.78 204.336 1136.82 204.984C1131.75 205.646 1127.33 202.594 1122.38 203.314C1121.8 203.4 1120.95 202.896 1120.52 202.406C1118.17 199.728 1116.1 200.16 1113.97 202.694C1113.57 203.17 1112.7 203.501 1112.04 203.501C1107.32 203.443 1102.55 204.048 1097.58 203.069C1097.27 197.77 1096.98 192.888 1096.66 187.762C1090.4 187.762 1084.9 187.877 1079.38 187.718C1075.69 187.618 1071.71 188.856 1068.62 185.357C1068.05 184.694 1066.35 184.939 1065.17 184.91C1062.76 184.853 1060.37 184.91 1057.97 184.882C1051.72 184.824 1048.09 181.598 1046.87 174.816C1043.96 174.802 1040.83 173.477 1039.1 177.667C1038.73 178.56 1036.17 178.819 1034.58 178.891C1030.33 179.093 1026.07 179.035 1021.46 179.078C1021.28 182.534 1021.29 185.386 1020.87 188.179C1020.74 188.986 1019.46 189.821 1018.53 190.181C1018.21 190.31 1016.91 189.072 1016.81 188.366C1016.41 185.515 1016.32 182.606 1013.43 180.49C1007.71 181.051 1001.35 178.387 995.933 183.168C995.357 183.672 994.075 183.442 993.125 183.427C984.744 183.283 976.363 183.125 967.997 182.966C967.334 182.966 966.485 182.722 966.024 183.024C961.589 185.962 956.75 184.478 952.056 184.378C951.653 184.378 951.25 183.917 950.803 183.643C950.27 181.714 949.738 179.741 949.147 177.595C935.352 177.595 921.931 177.595 908.496 177.595C905.141 177.595 901.771 177.566 898.416 177.509C895.824 177.466 894.442 176.054 894.254 173.52C894.139 172.094 894.168 170.64 894.168 169.2C894.168 162.475 894.269 155.765 894.168 149.04C894.082 142.574 894.456 136.21 892.93 129.672C891.547 123.768 889.301 118.152 887.962 112.277C887.918 112.061 887.155 112.018 886.536 111.83C884.506 114.422 887.011 118.987 883.195 121.061C882.576 120.413 882.014 120.11 881.971 119.736C876.629 79.8624 871.33 39.9888 866.016 0C865.382 5.2992 864.662 10.4976 864.144 15.696C863.482 22.3488 863.107 29.0448 862.373 35.6832C861.134 46.8288 859.594 57.9312 858.413 69.0912C857.232 80.2512 856.339 91.44 855.288 102.614C854.856 107.122 854.366 111.629 853.877 116.136C853.603 118.642 853.546 121.291 850.277 122.717C849.154 119.318 848.131 116.28 847.123 113.242C845.251 116.122 844.157 119.016 844.07 121.925C843.955 126.014 842.616 128.822 838.584 129.557C838.21 134.722 836.669 138.422 833.962 140.659C838.714 141.379 839.851 144.389 839.477 148.392C839.016 153.274 838.685 158.17 838.296 162.936C832.075 164.246 825.97 162.13 820.109 164.405C818.554 172.526 820.742 180.749 818.654 189.029C815.861 188.87 813.557 188.741 810.907 188.597C810.634 184.334 810.389 180.59 810.115 176.429C805.594 176.184 801.374 175.939 797.126 175.709C796.363 173.405 795.686 171.389 795.024 169.387C794.65 169.474 794.261 169.546 793.886 169.632C793.685 176.443 793.483 183.269 793.267 190.714C790.474 190.454 788.501 190.282 786.139 190.066V159.682C782.482 158.818 780.854 156.47 780.394 153.072C778.925 142.229 774.835 132.278 769.536 122.818C761.717 108.864 750.83 97.8192 736.315 91.0944C731.275 88.7616 729.13 86.2272 729.792 81C729.85 80.5392 729.648 80.064 729.518 79.2432C727.272 78.2208 725.53 76.8096 725.645 73.5264C725.99 63.9936 725.89 54.4752 724.162 45.0144C723.658 42.2496 723.355 39.7872 720.677 38.4624C717.97 37.1232 716.861 35.1072 716.976 32.1264C717.077 29.5632 717.595 26.7264 713.88 25.776C713.232 25.6032 712.757 23.7744 712.656 22.68C712.469 20.5488 712.598 18.3888 712.598 16.3872C708.35 14.2848 707.515 13.392 708.61 9.3456C709.416 6.3792 709.114 3.9888 707.443 1.1088C707.054 3.9744 705.542 6.0048 706.694 9C707.702 11.6208 708.264 15.192 704.016 16.8048C703.253 17.0928 703.166 19.296 702.878 20.6496C702.533 22.248 702.691 25.0416 701.957 25.2864C697.752 26.6832 698.443 29.952 698.429 32.976C698.429 35.4096 697.421 37.008 695.29 38.1744C693.389 39.2112 691.56 40.4928 691.488 43.0128C691.286 50.3856 688.781 57.5424 689.645 65.0448C690.005 68.1264 689.789 71.28 689.645 74.3904C689.602 75.5136 689.27 77.3856 688.637 77.6016C684.778 78.912 685.584 82.008 685.598 84.7584C685.598 87.2064 684.634 88.8768 682.402 89.856C681.307 90.3312 680.256 90.9216 679.162 91.4256C666.432 97.3872 656.597 106.646 649.109 118.397C642.24 129.197 637.445 140.89 635.112 153.518C634.853 154.886 634.608 156.413 633.83 157.493C633.283 158.256 631.872 158.414 630.389 159.034V190.195H618.768C619.834 167.904 619.301 124.531 617.803 118.67C610.502 118.67 603.086 118.656 595.67 118.685C594.734 118.685 593.712 118.771 592.877 119.146C590.371 120.254 587.923 121.522 584.971 122.976C584.914 123.307 584.654 124.214 584.64 125.136C584.194 144.504 583.776 163.872 583.33 183.24C583.272 185.544 583.056 187.848 582.869 190.8H556.762C556.027 193.493 555.494 195.48 554.846 197.827C551.232 197.827 547.877 197.64 544.55 197.885C541.57 198.101 538.632 197.179 535.579 199.138C533.002 200.794 529.445 200.909 526.262 201.715C525.715 203.112 525.139 204.624 524.621 205.978C515.866 206.712 515.578 206.453 515.491 198.374C515.448 194.616 515.362 190.843 515.29 186.754C510.725 186.71 506.75 185.328 503.309 187.819C503.525 192.082 503.957 195.883 503.87 199.67C503.755 204.653 502.272 205.373 496.915 203.486C496.699 200.506 496.483 197.453 496.238 194.04H482.026C481.291 195.826 480.686 197.323 479.952 199.138C468.274 199.138 456.768 199.138 445.277 199.138C442.843 199.138 441.13 198.216 440.669 195.581C440.482 194.472 440.021 193.406 439.646 192.24C436.032 192.47 432.677 191.491 429.538 193.046C429.379 193.968 429.278 194.688 429.149 195.379C428.314 199.987 428.098 200.218 423.936 200.592C422.51 200.722 421.07 200.693 419.645 200.837C419.227 200.88 418.838 201.269 418.018 201.73V207.288C415.8 207.518 413.957 207.864 412.099 207.864C393.624 207.907 375.149 207.907 356.674 207.864C354.787 207.864 352.699 207.95 351.086 207.173C349.834 206.582 349.2 204.71 348.322 203.458C342.043 203.846 336.096 202.579 330.408 204.25C330.034 207.461 329.702 210.24 329.357 213.178C324.418 213.653 319.997 214.358 315.173 212.501C315.173 210.01 315.173 207.634 315.173 205.258C315.173 195.898 315.144 186.538 315.173 177.178C315.202 171.36 314.107 166.176 308.837 162.547C307.685 161.755 307.066 159.696 306.835 158.126C306.101 153.418 305.726 148.637 305.136 143.899C304.128 135.85 303.048 127.814 301.997 119.779C300.125 127.138 299.434 134.554 297.648 141.696C295.877 148.766 296.352 156.427 292.536 163.44H264.802C263.304 167.198 261.706 170.323 260.856 173.621C260.28 175.867 260.827 178.402 260.683 180.792C260.539 183.384 260.942 186.408 259.747 188.453C258.12 191.246 261.331 192.139 260.986 194.515C260.338 198.979 260.856 203.602 260.784 208.166C260.755 210.067 260.914 212.155 260.15 213.782C259.574 215.021 257.702 215.669 256.694 216.36C256.464 219.96 256.277 222.984 256.075 226.267C251.64 226.526 247.882 226.742 244.224 226.944C243.461 232.027 243.461 232.142 239.976 232.272C237.427 232.373 234.864 232.114 231.826 231.998V211.752C229.637 208.958 228.125 207.144 226.742 205.243C223.488 200.779 219.182 197.986 213.797 196.79C203.054 194.414 191.678 203.371 191.578 214.301C191.534 218.621 191.693 222.941 191.462 227.261C191.405 228.456 190.57 230.112 189.605 230.602C188.654 231.077 187.099 230.328 185.803 230.112C185.53 226.368 185.299 223.114 185.069 219.917H171C169.056 222.206 171.115 225.547 167.285 226.541C166.133 225.216 164.851 223.733 163.21 221.832C162.36 223.056 161.726 223.718 161.381 224.496C160.517 226.411 158.962 226.642 157.19 226.325C155.29 225.994 154.066 224.798 154.109 222.912C154.267 216.778 150.322 212.285 147.73 207.389C144.576 201.427 138.888 198.734 132.062 199.325C124.042 200.016 119.117 204.739 116.021 211.91C113.155 218.549 109.814 220.651 102.845 220.781C101.448 220.81 100.066 221.054 98.6832 221.184C98.0496 223.027 97.5168 224.568 96.8112 226.584C93.9312 226.584 91.08 226.714 88.2432 226.512C87.192 226.44 85.9824 225.835 85.1904 225.115C81.6336 221.846 81.6336 221.731 77.184 224.222C74.9088 225.504 73.2384 225.706 71.9136 223.013C71.4816 222.134 70.4448 221.558 69.0912 220.291C68.4576 222.062 68.256 223.2 67.6656 224.064C67.0752 224.928 66.096 225.518 65.2752 226.224C64.5984 225.374 63.4464 224.568 63.3312 223.646C62.9856 220.608 63.0144 217.526 62.8848 213.725H55.44C44.1648 213.725 32.8752 213.624 21.6 213.782C18.144 213.84 15.5808 213.062 14.6304 209.189H0V271.109H1440V246.629C1436.88 246.629 1433.75 246.73 1430.64 246.571V246.542ZM609.235 159.077C606.038 160.546 603.432 160.805 600.466 158.818C600.466 154.627 600.336 150.365 600.509 146.117C600.638 142.862 602.021 141.48 604.613 141.35C607.464 141.206 609.062 142.762 609.192 146.347C609.35 150.581 609.235 154.829 609.235 159.077ZM877.032 178.805H869.126C868.824 177.12 868.334 175.55 868.306 173.981C868.219 168.466 868.162 162.95 868.349 157.45C868.464 154.195 869.933 152.827 872.597 152.798C875.275 152.755 876.902 154.138 876.974 157.306C877.147 164.203 877.032 171.101 877.032 178.805ZM1116.91 202.925C1116.84 202.939 1116.73 202.954 1116.65 202.954C1116.73 202.954 1116.82 202.939 1116.91 202.925ZM1356.08 197.813C1355.9 197.438 1355.8 196.92 1355.5 196.747C1355.8 196.92 1355.89 197.438 1356.08 197.813Z" fill="#FFEACB"/>
</g>
<defs>
<clipPath id="clip0_32_729">
<rect width="1440" height="272" fill="white"/>
</clipPath>
</defs>
</svg>
