<svg width="25" height="24" viewBox="0 0 25 24" fill="none" xmlns="http://www.w3.org/2000/svg">
<path d="M12.0644 10.9508H13.4557V10.2551H12.3397L11.4075 6.33955C11.3894 6.26324 11.3461 6.19526 11.2846 6.14657C11.2232 6.09789 11.1471 6.07135 11.0686 6.07123H9.57395C9.49552 6.07135 9.41942 6.09789 9.35794 6.14657C9.29645 6.19526 9.25316 6.26324 9.23506 6.33955L8.30189 10.2551H7.18287V10.9508H12.0644ZM9.84923 6.76589H10.7924L11.6232 10.2531H9.01842L9.84923 6.76589ZM11.3668 14.7869H9.27482C9.22906 14.7867 9.18372 14.7956 9.1414 14.813C9.09909 14.8305 9.06063 14.8561 9.02822 14.8884C8.99582 14.9207 8.97011 14.9591 8.95256 15.0013C8.93502 15.0436 8.92599 15.0889 8.92599 15.1347V16.8788C8.92599 16.9713 8.96274 17.06 9.02816 17.1255C9.09358 17.1909 9.1823 17.2276 9.27482 17.2276H11.3668C11.4126 17.2278 11.458 17.2188 11.5004 17.2013C11.5428 17.1839 11.5813 17.1582 11.6137 17.1257C11.6461 17.0933 11.6718 17.0548 11.6893 17.0124C11.7068 16.9701 11.7157 16.9246 11.7156 16.8788V15.1347C11.7157 15.0889 11.7068 15.0435 11.6893 15.0012C11.6718 14.9589 11.6461 14.9204 11.6137 14.8881C11.5812 14.8557 11.5427 14.8301 11.5003 14.8128C11.458 14.7954 11.4126 14.7866 11.3668 14.7869ZM11.0189 16.53H9.62364V15.4835H11.015L11.0189 16.53ZM6.83404 14.7869H7.53169V16.53H6.83404V14.7869ZM17.9924 12.3451H18.6901V14.0882H17.9924V12.3451ZM17.9924 9.20766H18.6901V10.9508H17.9924V9.20766ZM22.1773 6.76589H17.2958C17.25 6.76589 17.2047 6.77492 17.1624 6.79247C17.1202 6.81001 17.0818 6.83572 17.0495 6.86812C17.0172 6.90053 16.9916 6.93899 16.9741 6.9813C16.9567 7.02362 16.9478 7.06896 16.9479 7.11472V13.7404H2.99798C2.95222 13.7404 2.9069 13.7494 2.86464 13.767C2.82237 13.7845 2.78398 13.8102 2.75167 13.8426C2.71936 13.875 2.69376 13.9135 2.67634 13.9558C2.65892 13.9981 2.65002 14.0434 2.65015 14.0892V18.2731C2.65002 18.3189 2.65892 18.3642 2.67634 18.4065C2.69376 18.4488 2.71936 18.4873 2.75167 18.5197C2.78398 18.5521 2.82237 18.5778 2.86464 18.5954C2.9069 18.6129 2.95222 18.6219 2.99798 18.6219H22.1783C22.2708 18.6219 22.3596 18.5852 22.425 18.5198C22.4904 18.4543 22.5271 18.3656 22.5271 18.2731V7.11472C22.5271 7.06883 22.5181 7.02338 22.5005 6.981C22.4829 6.93861 22.4571 6.90011 22.4246 6.86771C22.3921 6.83531 22.3536 6.80963 22.3111 6.79216C22.2687 6.77469 22.2232 6.76576 22.1773 6.76589ZM16.947 15.8323H12.7621V14.441H16.947V15.8323ZM3.3468 14.441H7.88052V17.9283H3.3468V14.441ZM8.57717 14.441H12.0644V15.8323H12.0525V16.528H12.0644V17.9193H8.57717V14.441ZM12.7621 16.528H16.947V17.9193H12.7621V16.528ZM21.8285 17.9193H17.6436V11.9973H21.8285V17.9193ZM17.6436 11.2996V7.46354H21.8285V11.2996H17.6436Z" fill="#FF5C00"/>
</svg>
