<svg width="45" height="45" viewBox="0 0 45 45" fill="none" xmlns="http://www.w3.org/2000/svg">
<path d="M22.5 3.75C18.5476 3.7498 14.7549 5.30955 11.9461 8.09023C9.13731 10.8709 7.53952 14.6478 7.5 18.6C7.5 28.875 20.7188 40.3125 21.2813 40.8C21.6209 41.0905 22.0531 41.2501 22.5 41.2501C22.9469 41.2501 23.3791 41.0905 23.7187 40.8C24.375 40.3125 37.5 28.875 37.5 18.6C37.4605 14.6478 35.8627 10.8709 33.0539 8.09023C30.2451 5.30955 26.4524 3.7498 22.5 3.75ZM22.5 36.8437C19.3688 33.8625 11.25 25.5938 11.25 18.6C11.25 15.6163 12.4353 12.7548 14.545 10.645C16.6548 8.53526 19.5163 7.35 22.5 7.35C25.4837 7.35 28.3452 8.53526 30.455 10.645C32.5647 12.7548 33.75 15.6163 33.75 18.6C33.75 25.5375 25.6312 33.8625 22.5 36.8437Z" fill="#FF5C00"/>
<path d="M22.5 11.25C21.2021 11.25 19.9333 11.6349 18.8541 12.356C17.7749 13.0771 16.9337 14.102 16.437 15.3011C15.9403 16.5003 15.8104 17.8198 16.0636 19.0928C16.3168 20.3658 16.9418 21.5351 17.8596 22.4529C18.7774 23.3707 19.9467 23.9957 21.2197 24.2489C22.4927 24.5021 23.8122 24.3722 25.0114 23.8755C26.2105 23.3788 27.2354 22.5376 27.9565 21.4584C28.6776 20.3792 29.0625 19.1104 29.0625 17.8125C29.0625 16.072 28.3711 14.4028 27.1404 13.1721C25.9097 11.9414 24.2405 11.25 22.5 11.25ZM22.5 20.625C21.9437 20.625 21.4 20.4601 20.9375 20.151C20.4749 19.842 20.1145 19.4027 19.9016 18.8888C19.6887 18.3749 19.633 17.8094 19.7415 17.2638C19.8501 16.7182 20.1179 16.2171 20.5113 15.8238C20.9046 15.4304 21.4057 15.1626 21.9513 15.054C22.4969 14.9455 23.0624 15.0012 23.5763 15.2141C24.0902 15.427 24.5295 15.7874 24.8385 16.25C25.1476 16.7125 25.3125 17.2562 25.3125 17.8125C25.3125 18.5584 25.0162 19.2738 24.4887 19.8012C23.9613 20.3287 23.2459 20.625 22.5 20.625Z" fill="#FF5C00"/>
</svg>
