<svg width="25" height="24" viewBox="0 0 25 24" fill="none" xmlns="http://www.w3.org/2000/svg">
<path d="M12.1913 8.19898C11.5061 8.19898 10.8276 8.33394 10.1946 8.59614C9.56162 8.85834 8.98645 9.24265 8.50196 9.72714C8.01748 10.2116 7.63316 10.7868 7.37096 11.4198C7.10876 12.0528 6.97381 12.7313 6.97381 13.4164C6.97381 14.1016 7.10876 14.7801 7.37096 15.4131C7.63316 16.0461 8.01748 16.6212 8.50196 17.1057C8.98645 17.5902 9.56162 17.9745 10.1946 18.2367C10.8276 18.4989 11.5061 18.6339 12.1913 18.6339C13.575 18.6339 14.9021 18.0842 15.8806 17.1057C16.859 16.1273 17.4087 14.8002 17.4087 13.4164C17.4087 12.0327 16.859 10.7056 15.8806 9.72714C14.9021 8.74868 13.575 8.19898 12.1913 8.19898ZM8.46451 13.4164C8.46399 12.4511 8.83804 11.5233 9.50792 10.8282C10.1778 10.1332 11.0912 9.7252 12.0559 9.69014C13.0206 9.65507 13.9612 9.99569 14.6798 10.6403C15.3983 11.2848 15.8388 12.1831 15.9083 13.1459C15.7562 13.2693 15.5876 13.3709 15.4074 13.4477C14.8902 13.6713 14.0367 13.804 12.5647 13.4358C10.9219 13.0259 9.81434 13.2696 9.04066 13.7496C8.84687 13.8703 8.67917 14.0023 8.53383 14.1342C8.4877 13.8977 8.46448 13.6574 8.46451 13.4164ZM8.83718 5.96293C8.83718 6.25945 8.71939 6.54383 8.50972 6.7535C8.30005 6.96317 8.01568 7.08096 7.71916 7.08096C7.42264 7.08096 7.13827 6.96317 6.9286 6.7535C6.71892 6.54383 6.60113 6.25945 6.60113 5.96293C6.60113 5.66641 6.71892 5.38204 6.9286 5.17237C7.13827 4.9627 7.42264 4.84491 7.71916 4.84491C8.01568 4.84491 8.30005 4.9627 8.50972 5.17237C8.71939 5.38204 8.83718 5.66641 8.83718 5.96293ZM12.9366 5.21758C12.7389 5.21758 12.5493 5.29611 12.4096 5.43589C12.2698 5.57567 12.1913 5.76525 12.1913 5.96293C12.1913 6.16061 12.2698 6.35019 12.4096 6.48997C12.5493 6.62975 12.7389 6.70828 12.9366 6.70828H16.6634C16.861 6.70828 17.0506 6.62975 17.1904 6.48997C17.3302 6.35019 17.4087 6.16061 17.4087 5.96293C17.4087 5.76525 17.3302 5.57567 17.1904 5.43589C17.0506 5.29611 16.861 5.21758 16.6634 5.21758H12.9366ZM5.85578 2.23618C4.96623 2.23618 4.11311 2.58956 3.48409 3.21857C2.85508 3.84758 2.50171 4.7007 2.50171 5.59026V18.2612C2.50171 19.1508 2.85508 20.0039 3.48409 20.6329C4.11311 21.2619 4.96623 21.6153 5.85578 21.6153H18.5267C19.4163 21.6153 20.2694 21.2619 20.8984 20.6329C21.5274 20.0039 21.8808 19.1508 21.8808 18.2612V5.59026C21.8808 4.7007 21.5274 3.84758 20.8984 3.21857C20.2694 2.58956 19.4163 2.23618 18.5267 2.23618H5.85578ZM3.99241 5.59026C3.99241 5.09606 4.18873 4.6221 4.53818 4.27265C4.88763 3.9232 5.36159 3.72688 5.85578 3.72688H18.5267C19.0209 3.72688 19.4949 3.9232 19.8443 4.27265C20.1938 4.6221 20.3901 5.09606 20.3901 5.59026V18.2612C20.3901 18.7554 20.1938 19.2294 19.8443 19.5788C19.4949 19.9283 19.0209 20.1246 18.5267 20.1246H5.85578C5.36159 20.1246 4.88763 19.9283 4.53818 19.5788C4.18873 19.2294 3.99241 18.7554 3.99241 18.2612V5.59026Z" fill="#FF5C00"/>
</svg>
