<svg width="24" height="24" viewBox="0 0 24 24" fill="none" xmlns="http://www.w3.org/2000/svg">
<g clip-path="url(#clip0_32_599)">
<path fill-rule="evenodd" clip-rule="evenodd" d="M9.57401 4.96909C9.17865 4.96909 8.79948 5.12615 8.51992 5.40571C8.24036 5.68527 8.08331 6.06443 8.08331 6.45979V9.93809H15.0399V6.45979C15.0399 5.53729 15.4064 4.65257 16.0587 4.00026C16.711 3.34795 17.5957 2.98149 18.5182 2.98149C19.4407 2.98149 20.3254 3.34795 20.9777 4.00026C21.63 4.65257 21.9965 5.53729 21.9965 6.45979C21.9962 6.71309 21.8992 6.95672 21.7253 7.14091C21.5515 7.3251 21.3138 7.43594 21.0609 7.45078C20.8081 7.46562 20.5591 7.38335 20.3649 7.22078C20.1706 7.0582 20.0458 6.82759 20.0159 6.57607L20.0089 6.45979C20.0089 6.06443 19.8519 5.68527 19.5723 5.40571C19.2927 5.12615 18.9136 4.96909 18.5182 4.96909C18.1228 4.96909 17.7437 5.12615 17.4641 5.40571C17.1846 5.68527 17.0275 6.06443 17.0275 6.45979V14.9071C17.0275 15.0502 16.9977 15.1854 16.943 15.3076C17.1148 15.4011 17.3104 15.4418 17.5052 15.4246C17.7 15.4075 17.8854 15.3332 18.0382 15.2112L19.3878 14.1309C19.4897 14.0494 19.6067 13.9887 19.7321 13.9523C19.8575 13.916 19.9888 13.9047 20.1185 13.9191C20.2483 13.9335 20.3739 13.9733 20.4883 14.0362C20.6027 14.0992 20.7035 14.184 20.7851 14.286C20.8666 14.3879 20.9273 14.5049 20.9637 14.6303C21 14.7556 21.0113 14.887 20.9969 15.0167C20.9825 15.1465 20.9427 15.2721 20.8798 15.3865C20.8168 15.5008 20.732 15.6017 20.63 15.6832L19.2805 16.7625C18.7864 17.1578 18.1795 17.3857 17.5474 17.4132C16.9153 17.4407 16.2909 17.2664 15.7644 16.9156L15.2009 16.5399C15.0254 16.4227 14.8171 16.3645 14.6063 16.3736C14.3954 16.3827 14.193 16.4587 14.0282 16.5906L13.9209 16.677C13.3923 17.0999 12.7355 17.3303 12.0585 17.3303C11.3816 17.3303 10.7248 17.0999 10.1961 16.677L10.0878 16.5906C9.92293 16.4589 9.72041 16.3831 9.50958 16.3741C9.29875 16.3652 9.09054 16.4236 8.91512 16.5409L8.35362 16.9156C7.82704 17.2667 7.20239 17.4411 6.57009 17.4136C5.93779 17.386 5.33066 17.158 4.83656 16.7625L3.48698 15.6832C3.28113 15.5185 3.14915 15.2788 3.12008 15.0167C3.09101 14.7547 3.16722 14.4918 3.33195 14.286C3.49668 14.0801 3.73644 13.9481 3.99848 13.9191C4.26052 13.89 4.52338 13.9662 4.72923 14.1309L6.09571 15.2251V6.45979C6.09571 6.00301 6.18568 5.55071 6.36048 5.1287C6.53528 4.7067 6.79149 4.32325 7.11448 4.00026C7.43747 3.67727 7.82091 3.42106 8.24292 3.24626C8.66493 3.07146 9.11723 2.98149 9.57401 2.98149C10.0308 2.98149 10.4831 3.07146 10.9051 3.24626C11.3271 3.42106 11.7105 3.67727 12.0335 4.00026C12.3565 4.32325 12.6127 4.7067 12.7875 5.1287C12.9623 5.55071 13.0523 6.00301 13.0523 6.45979C13.052 6.71309 12.955 6.95672 12.7812 7.14091C12.6073 7.3251 12.3696 7.43594 12.1167 7.45078C11.8639 7.46562 11.6149 7.38335 11.4207 7.22078C11.2264 7.0582 11.1016 6.82759 11.0717 6.57607L11.0647 6.45979C11.0647 6.06443 10.9077 5.68527 10.6281 5.40571C10.3485 5.12615 9.96937 4.96909 9.57401 4.96909ZM15.0399 14.4112V11.9257H8.08331V14.7262C8.59639 14.4573 9.1767 14.3438 9.75329 14.3994C10.3299 14.455 10.8778 14.6773 11.3301 15.0393L11.4374 15.1257C11.6136 15.2668 11.8327 15.3437 12.0585 15.3437C12.2843 15.3437 12.5034 15.2668 12.6796 15.1257L12.787 15.0393C13.1007 14.7879 13.462 14.6026 13.8491 14.4945C14.2363 14.3864 14.6414 14.3577 15.0399 14.4102V14.4112ZM18.0382 19.1864C17.8733 19.3181 17.6708 19.3939 17.46 19.4029C17.2491 19.4118 17.0409 19.3534 16.8655 19.2361L16.304 18.8614C15.7774 18.5103 15.1528 18.3359 14.5205 18.3634C13.8882 18.3909 13.2811 18.619 12.787 19.0145L12.6796 19.1009C12.5034 19.242 12.2843 19.3189 12.0585 19.3189C11.8327 19.3189 11.6136 19.242 11.4374 19.1009L11.3301 19.0145C10.836 18.6192 10.2291 18.3913 9.59701 18.3638C8.96492 18.3363 8.34047 18.5106 7.81399 18.8614L7.2505 19.2371C7.07498 19.3542 6.86672 19.4125 6.65588 19.4034C6.44504 19.3942 6.24258 19.3183 6.07782 19.1864L4.72923 18.1061C4.52338 17.9414 4.26052 17.8652 3.99848 17.8943C3.73644 17.9233 3.49668 18.0553 3.33195 18.2612C3.16722 18.467 3.09101 18.7299 3.12008 18.9919C3.14915 19.254 3.28113 19.4937 3.48698 19.6584L4.83656 20.7377C5.33066 21.1332 5.93779 21.3612 6.57009 21.3888C7.20239 21.4163 7.82704 21.2419 8.35362 20.8908L8.91611 20.5151C9.09164 20.3979 9.2999 20.3397 9.51074 20.3488C9.72157 20.3579 9.92403 20.4339 10.0888 20.5658L10.1961 20.6522C10.7248 21.0751 11.3816 21.3055 12.0585 21.3055C12.7355 21.3055 13.3923 21.0751 13.9209 20.6522L14.0292 20.5658C14.1941 20.4341 14.3966 20.3583 14.6074 20.3493C14.8183 20.3404 15.0265 20.3988 15.2019 20.5161L15.7644 20.8908C16.2909 21.2416 16.9153 21.4159 17.5474 21.3884C18.1795 21.3609 18.7864 21.133 19.2805 20.7377L20.63 19.6584C20.732 19.5769 20.8168 19.476 20.8798 19.3617C20.9427 19.2473 20.9825 19.1217 20.9969 18.9919C21.0113 18.8622 21 18.7308 20.9637 18.6055C20.9273 18.4801 20.8666 18.3631 20.7851 18.2612C20.7035 18.1592 20.6027 18.0744 20.4883 18.0114C20.3739 17.9485 20.2483 17.9087 20.1185 17.8943C19.9888 17.8799 19.8575 17.8912 19.7321 17.9275C19.6067 17.9639 19.4897 18.0246 19.3878 18.1061L18.0382 19.1864Z" fill="#FF5C00"/>
</g>
<defs>
<clipPath id="clip0_32_599">
<rect width="23.8512" height="23.8512" fill="white" transform="translate(0.132812 0.000152588)"/>
</clipPath>
</defs>
</svg>
