<svg width="22" height="22" viewBox="0 0 22 22" fill="none" xmlns="http://www.w3.org/2000/svg">
<g clip-path="url(#clip0_32_639)">
<path fill-rule="evenodd" clip-rule="evenodd" d="M10.9999 1.83333C5.93717 1.83333 1.83325 5.93724 1.83325 11C1.83325 12.7325 2.3145 14.355 3.15142 15.7373L2.33375 18.5167C2.2868 18.6762 2.28372 18.8455 2.32481 19.0067C2.3659 19.1679 2.44966 19.315 2.56728 19.4326C2.6849 19.5503 2.83203 19.634 2.99322 19.6751C3.1544 19.7162 3.32368 19.7131 3.48325 19.6662L6.26259 18.8485C7.69137 19.713 9.32995 20.1689 10.9999 20.1667C16.0627 20.1667 20.1666 16.0627 20.1666 11C20.1666 5.93724 16.0627 1.83333 10.9999 1.83333ZM8.92642 13.0744C10.7808 14.9279 12.5509 15.1727 13.1761 15.1956C14.1267 15.2304 15.0525 14.5044 15.4128 13.662C15.4582 13.5572 15.4747 13.4421 15.4606 13.3288C15.4464 13.2154 15.402 13.1079 15.3321 13.0176C14.8298 12.3759 14.1505 11.9148 13.4868 11.4565C13.3483 11.3607 13.178 11.3223 13.0117 11.3493C12.8454 11.3763 12.696 11.4666 12.5949 11.6013L12.0449 12.4401C12.016 12.4852 11.9709 12.5175 11.919 12.5305C11.867 12.5434 11.812 12.536 11.7653 12.5097C11.3923 12.2962 10.8487 11.9332 10.4582 11.5427C10.0677 11.1522 9.72667 10.6333 9.53509 10.2841C9.51133 10.2397 9.50446 10.1882 9.51576 10.1392C9.52705 10.0901 9.55574 10.0468 9.5965 10.0173L10.4435 9.38849C10.5644 9.28339 10.6424 9.13751 10.6627 8.97862C10.683 8.81973 10.6441 8.65893 10.5535 8.52683C10.1428 7.92549 9.66434 7.16099 8.97042 6.65408C8.88087 6.58918 8.77596 6.54872 8.66602 6.53666C8.55609 6.52461 8.44491 6.54138 8.34342 6.58533C7.50009 6.94649 6.77042 7.87233 6.80525 8.82474C6.82817 9.44991 7.07292 11.22 8.92642 13.0744Z" fill="white"/>
</g>
<defs>
<clipPath id="clip0_32_639">
<rect width="22" height="22" fill="white"/>
</clipPath>
</defs>
</svg>
