<svg width="25" height="24" viewBox="0 0 25 24" fill="none" xmlns="http://www.w3.org/2000/svg">
<g clip-path="url(#clip0_32_593)">
<path d="M8.28385 13.6294C8.83784 13.0607 9.50012 12.6087 10.2316 12.3C10.9631 11.9914 11.749 11.8324 12.543 11.8324C13.3369 11.8324 14.1229 11.9914 14.8544 12.3C15.5859 12.6087 16.2481 13.0607 16.8021 13.6294M4.58691 10.7502C5.62395 9.70716 6.85697 8.87939 8.21507 8.31453C9.57316 7.74967 11.0295 7.45889 12.5004 7.45889C13.9713 7.45889 15.4276 7.74967 16.7857 8.31453C18.1438 8.87939 19.3768 9.70716 20.4139 10.7502M12.4919 20.87C12.785 20.87 13.0752 20.8122 13.346 20.7001C13.6167 20.5879 13.8628 20.4235 14.07 20.2163C14.2772 20.0091 14.4416 19.763 14.5538 19.4922C14.6659 19.2215 14.7237 18.9313 14.7237 18.6382C14.7237 18.3451 14.6659 18.0549 14.5538 17.7841C14.4416 17.5133 14.2772 17.2673 14.07 17.0601C13.8628 16.8528 13.6167 16.6884 13.346 16.5763C13.0752 16.4641 12.785 16.4064 12.4919 16.4064C11.9 16.4064 11.3323 16.6415 10.9138 17.0601C10.4952 17.4786 10.2601 18.0463 10.2601 18.6382C10.2601 19.2301 10.4952 19.7978 10.9138 20.2163C11.3323 20.6348 11.9 20.87 12.4919 20.87Z" stroke="#FF5C00" stroke-width="1.70366" stroke-linecap="round" stroke-linejoin="round"/>
<path d="M1.41821 7.5814C2.87217 6.12668 4.5985 4.9727 6.49858 4.18537C8.39866 3.39805 10.4352 2.99281 12.492 2.99281C14.5487 2.99281 16.5853 3.39805 18.4854 4.18537C20.3855 4.9727 22.1118 6.12668 23.5658 7.5814" stroke="#FF5C00" stroke-width="1.70366" stroke-linecap="round" stroke-linejoin="round"/>
</g>
<defs>
<clipPath id="clip0_32_593">
<rect width="23.8512" height="23.8512" fill="white" transform="translate(0.566406 0.000152588)"/>
</clipPath>
</defs>
</svg>
