<svg width="22" height="22" viewBox="0 0 22 22" fill="none" xmlns="http://www.w3.org/2000/svg">
<g clip-path="url(#clip0_32_635)">
<path d="M13.3762 16.1004C13.0239 15.3742 12.5684 14.8457 11.7821 15.168L10.2309 15.7437C8.98909 16.3195 8.37034 15.7437 7.75159 14.8801L4.96291 8.52929C4.61487 7.80312 4.79534 7.11992 5.58166 6.79765L7.75159 5.93398C8.53791 5.61172 8.4133 4.92851 8.06096 4.20234L6.20041 0.739059C5.84807 0.0128874 5.1262 -0.163285 4.33987 0.158981C2.76721 0.812106 1.46526 1.82617 0.62307 3.33437C-0.40818 5.17773 0.107445 7.73867 0.313695 8.81718C0.519945 9.8957 1.24182 11.782 2.17424 13.7242C3.10666 15.6664 3.92307 17.1918 4.65354 18.0555C5.38401 18.9191 7.13284 21.2824 9.30276 21.8066C11.0817 22.2363 12.9981 21.8754 14.5707 21.2266C15.3571 20.9043 15.3614 20.2211 15.009 19.4906L13.3762 16.1004ZM17.7676 5.07461H15.2281L18.6141 8.46054H11V10.1535H18.6141L15.2324 13.5352H17.7719L22.0043 9.30273L17.7676 5.07461Z" fill="white"/>
</g>
<defs>
<clipPath id="clip0_32_635">
<rect width="22" height="22" fill="white"/>
</clipPath>
</defs>
</svg>
