<svg width="24" height="24" viewBox="0 0 24 24" fill="none" xmlns="http://www.w3.org/2000/svg">
<path d="M11.3652 10.9508H12.7565V10.2551H11.6405L10.7083 6.33955C10.6902 6.26324 10.6469 6.19526 10.5854 6.14657C10.5239 6.09789 10.4478 6.07135 10.3694 6.07123H8.87473C8.79631 6.07135 8.72021 6.09789 8.65872 6.14657C8.59723 6.19526 8.55394 6.26324 8.53585 6.33955L7.60267 10.2551H6.48365V10.9508H11.3652ZM9.15001 6.76589H10.0931L10.9239 10.2531H8.3192L9.15001 6.76589ZM10.6675 14.7869H8.5756C8.52984 14.7867 8.4845 14.7956 8.44218 14.813C8.39987 14.8305 8.36141 14.8561 8.329 14.8884C8.2966 14.9207 8.27089 14.9591 8.25335 15.0013C8.2358 15.0436 8.22677 15.0889 8.22677 15.1347V16.8788C8.22677 16.9713 8.26353 17.06 8.32894 17.1255C8.39436 17.1909 8.48308 17.2276 8.5756 17.2276H10.6675C10.7134 17.2278 10.7588 17.2188 10.8012 17.2013C10.8436 17.1839 10.8821 17.1582 10.9145 17.1257C10.9469 17.0933 10.9726 17.0548 10.9901 17.0124C11.0076 16.9701 11.0165 16.9246 11.0164 16.8788V15.1347C11.0165 15.0889 11.0076 15.0435 10.9901 15.0012C10.9726 14.9589 10.9469 14.9204 10.9144 14.8881C10.882 14.8557 10.8435 14.8301 10.8011 14.8128C10.7587 14.7954 10.7133 14.7866 10.6675 14.7869ZM10.3197 16.53H8.92442V15.4835H10.3157L10.3197 16.53ZM6.13483 14.7869H6.83247V16.53H6.13483V14.7869ZM17.2932 12.3451H17.9909V14.0882H17.2932V12.3451ZM17.2932 9.20766H17.9909V10.9508H17.2932V9.20766ZM21.4781 6.76589H16.5966C16.5508 6.76589 16.5055 6.77492 16.4632 6.79247C16.421 6.81001 16.3826 6.83572 16.3503 6.86812C16.3179 6.90053 16.2923 6.93899 16.2749 6.9813C16.2575 7.02362 16.2486 7.06896 16.2487 7.11472V13.7404H2.29876C2.253 13.7404 2.20769 13.7494 2.16542 13.767C2.12315 13.7845 2.08477 13.8102 2.05245 13.8426C2.02014 13.875 1.99454 13.9135 1.97712 13.9558C1.9597 13.9981 1.9508 14.0434 1.95093 14.0892V18.2731C1.9508 18.3189 1.9597 18.3642 1.97712 18.4065C1.99454 18.4488 2.02014 18.4873 2.05245 18.5197C2.08477 18.5521 2.12315 18.5778 2.16542 18.5954C2.20769 18.6129 2.253 18.6219 2.29876 18.6219H21.4791C21.5716 18.6219 21.6603 18.5852 21.7258 18.5198C21.7912 18.4543 21.8279 18.3656 21.8279 18.2731V7.11472C21.8279 7.06883 21.8189 7.02338 21.8013 6.981C21.7837 6.93861 21.7579 6.90011 21.7254 6.86771C21.6929 6.83531 21.6543 6.80963 21.6119 6.79216C21.5695 6.77469 21.524 6.76576 21.4781 6.76589ZM16.2477 15.8323H12.0628V14.441H16.2477V15.8323ZM2.64758 14.441H7.1813V17.9283H2.64758V14.441ZM7.87795 14.441H11.3652V15.8323H11.3533V16.528H11.3652V17.9193H7.87795V14.441ZM12.0628 16.528H16.2477V17.9193H12.0628V16.528ZM21.1293 17.9193H16.9444V11.9973H21.1293V17.9193ZM16.9444 11.2996V7.46354H21.1293V11.2996H16.9444Z" fill="#FF5C00"/>
</svg>
