<svg width="27" height="26" viewBox="0 0 27 26" fill="none" xmlns="http://www.w3.org/2000/svg">
<path d="M9.30908 23.1358C9.00973 22.8363 8.84157 22.4302 8.84157 22.0068C8.84157 21.5834 9.00973 21.1774 9.30908 20.8779L17.2131 12.9739L9.30908 5.06985C9.01821 4.7687 8.85727 4.36535 8.86091 3.94668C8.86455 3.52801 9.03248 3.12752 9.32853 2.83146C9.62459 2.53541 10.0251 2.36748 10.4437 2.36384C10.8624 2.3602 11.2658 2.52115 11.5669 2.81201L20.5999 11.845C20.8992 12.1444 21.0674 12.5505 21.0674 12.9739C21.0674 13.3973 20.8992 13.8034 20.5999 14.1028L11.5669 23.1358C11.2675 23.4351 10.8614 23.6033 10.438 23.6033C10.0146 23.6033 9.60852 23.4351 9.30908 23.1358Z" fill="#FF5C00"/>
</svg>
