<svg width="336" height="175" viewBox="0 0 336 175" fill="none" xmlns="http://www.w3.org/2000/svg">
<g clip-path="url(#clip0_78_510)">
<path d="M9.06 159.56C22.15 159.07 35.17 156.9 47.97 154.21C76.73 148.03 104.56 138.16 131.25 125.89C137.03 123.26 143.23 120.24 148.87 117.36C187.24 97.72 228.22 81.49 271.26 75.97C284.49 74.47 297.95 73.54 311.16 75.76L311.03 76.7C307.79 76.59 304.49 76.74 301.23 76.98C291.45 77.69 281.74 79.28 272.15 81.3C249.69 86.05 227.92 93.18 206.65 101.66C185.38 110.14 164.61 119.98 144.12 130.15C138.26 132.9 131.77 135.72 125.79 138.13C101.09 148.11 75.25 155.51 48.83 159.09C35.63 160.75 22.3 161.79 9.02 160.51L9.08 159.56H9.06Z" fill="white"/>
<path d="M318.87 99.18L318.73 100.12C316.12 100.05 313.49 100.15 310.87 100.33C303.03 100.88 295.24 102.18 287.56 103.78C269.58 107.56 252.06 113.31 235 120.09C232.61 121.04 230.23 122.02 227.85 123C213.24 129.04 199.09 136.14 184.84 142.93C180.1 145.19 175 147.38 170.13 149.35C150.31 157.35 129.58 163.41 108.37 166.19C103.09 166.88 97.77 167.39 92.44 167.65C87.1 167.89 81.76 167.87 76.42 167.36L76.48 166.41C86.99 165.95 97.42 164.31 107.7 162.16C128.18 157.8 148.1 150.96 167.29 142.69C169.72 141.63 172.13 140.55 174.53 139.45C179.21 137.31 184.07 134.95 188.65 132.62C190.99 131.43 193.35 130.24 195.72 129.07C224.39 114.87 254.92 103.27 286.83 99.38C297.45 98.09 308.24 97.42 318.87 99.19V99.18Z" fill="white"/>
<path d="M143.92 173.25C167.61 171.96 190.65 164.66 212.36 155.43C219.67 152.26 226.63 148.8 233.78 145.17C255.37 134.51 278.41 125.91 302.42 122.76C310.45 121.83 318.56 121.27 326.59 122.58L326.45 123.52C318.58 123.37 310.69 124.69 302.99 126.24C287.59 129.46 272.5 134.67 257.98 140.67C243.17 146.56 229.32 154.57 214.51 160.54C195.86 168.06 176.09 173.34 155.94 174.39C151.91 174.57 147.9 174.59 143.86 174.19L143.92 173.24V173.25Z" fill="white"/>
<path d="M282.27 60.03C258.47 23.87 217.52 0 170.99 0C97.46 0 37.85 59.61 37.85 133.15C37.85 133.7 37.86 134.25 37.87 134.8C59.01 131.53 95.47 122.34 148.97 97.04C214.08 66.24 260.65 60.67 282.27 60.04V60.03Z" fill="white"/>
</g>
<g clip-path="url(#clip1_78_510)">
<path d="M72.17 139.98C72.17 140.48 72.18 140.99 72.21 141.52C72.24 142.05 72.33 142.55 72.5 143.02C72.67 143.49 72.94 143.87 73.33 144.15C73.72 144.43 74.27 144.57 75 144.57V144.99H64.66V144.57C65.38 144.57 65.94 144.43 66.33 144.15C66.72 143.87 67 143.5 67.16 143.02C67.32 142.54 67.42 142.05 67.45 141.52C67.48 140.99 67.49 140.48 67.49 139.98V108.28C67.49 107.78 67.48 107.27 67.45 106.74C67.42 106.21 67.33 105.71 67.16 105.24C66.99 104.77 66.71 104.39 66.33 104.11C65.94 103.83 65.38 103.69 64.66 103.69V103.27C66.61 103.27 68.27 103.05 69.66 102.6C71.05 102.16 71.75 101.63 71.75 101.02H72.17V139.98ZM66 92.43C68.5 92.43 69.75 91.12 69.75 88.51C69.75 91.13 71 92.43 73.5 92.43C71 92.43 69.75 93.68 69.75 96.18C69.75 93.68 68.5 92.43 66 92.43Z" fill="#FF5C00"/>
<path d="M89.36 111.2C90.42 108.53 92.28 106.4 94.95 104.82C97.62 103.24 100.79 102.44 104.46 102.44C106.91 102.44 109.13 102.8 111.13 103.52C113.13 104.24 114.85 105.23 116.3 106.48C117.75 107.73 118.87 109.19 119.68 110.86C120.49 112.53 120.89 114.34 120.89 116.28V142.64C120.89 147.31 121.38 150.74 122.35 152.94C123.32 155.14 124.87 156.23 126.98 156.23C127.92 156.23 128.73 155.94 129.4 155.35C130.07 154.77 130.93 153.58 131.99 151.8C132.66 150.69 133.52 150.13 134.58 150.13C134.97 150.13 135.3 150.24 135.58 150.46C136.19 150.9 136.37 151.54 136.12 152.38C135.87 153.21 135.3 153.99 134.41 154.72C133.35 155.55 132.28 156.15 131.2 156.51C130.12 156.87 128.85 157.05 127.41 157.05C119.96 157.05 116.23 152.43 116.23 143.2V116.26C116.23 114.48 115.97 112.8 115.44 111.21C114.91 109.63 114.12 108.25 113.06 107.08C112 105.91 110.71 104.98 109.18 104.29C107.65 103.6 105.89 103.25 103.88 103.25C102.05 103.25 100.25 103.54 98.5 104.13C96.75 104.71 95.19 105.55 93.83 106.63C92.47 107.71 91.38 109.02 90.58 110.55C89.77 112.08 89.37 113.82 89.37 115.76V139.95C89.37 140.45 89.38 140.96 89.41 141.49C89.44 142.02 89.53 142.52 89.7 142.99C89.87 143.46 90.14 143.84 90.53 144.12C90.92 144.4 91.47 144.54 92.2 144.54V144.96H81.86V144.54C82.58 144.54 83.14 144.4 83.53 144.12C83.92 143.84 84.2 143.47 84.36 142.99C84.52 142.51 84.62 142.02 84.65 141.49C84.68 140.96 84.69 140.45 84.69 139.95V110.59C84.69 110.09 84.68 109.58 84.65 109.05C84.62 108.52 84.53 108.02 84.36 107.55C84.19 107.08 83.91 106.7 83.53 106.42C83.14 106.14 82.58 106 81.86 106V105.58C84.14 105.58 85.89 105.29 87.12 104.7C88.34 104.12 88.95 103.63 88.95 103.24L89.37 103.16V111.17L89.36 111.2Z" fill="#FF5C00"/>
<path d="M182.87 144.65L160.1 91.6L157.43 141.15C157.32 142.04 157.43 142.83 157.76 143.53C158.09 144.23 158.82 144.57 159.93 144.57V144.99H152.67V144.57C153.73 144.57 154.48 144.28 154.92 143.69C155.36 143.11 155.62 142.43 155.67 141.65L158.42 90.6C158.53 89.71 158.43 88.89 158.13 88.14C157.82 87.39 157.06 87.01 155.84 87.01V86.59H163.43L185.62 138.23L207.81 86.59H214.98V87.01C213.81 87.01 213.07 87.39 212.77 88.14C212.46 88.89 212.34 89.71 212.39 90.6L215.06 139.98C215.06 140.48 215.1 140.99 215.18 141.52C215.26 142.05 215.4 142.55 215.6 143.02C215.79 143.49 216.1 143.87 216.52 144.15C216.94 144.43 217.51 144.57 218.23 144.57V144.99H207.47V144.57C208.69 144.57 209.46 144.18 209.76 143.4C210.06 142.62 210.16 141.76 210.05 140.81L207.46 91.59L184.6 144.98H182.68L182.85 144.65H182.87Z" fill="black"/>
<path d="M223.66 135.06C223.66 129.33 227.83 124.86 236.17 121.63C237.28 121.19 238.46 120.78 239.71 120.42C240.96 120.06 242.23 119.7 243.51 119.34C244.79 118.98 246.05 118.63 247.31 118.3C248.56 117.97 249.71 117.66 250.77 117.38V116.63C250.77 112.24 249.88 108.91 248.1 106.66C246.32 104.41 243.73 103.28 240.34 103.28C238.45 103.28 236.67 103.6 235 104.24C233.33 104.88 232.02 105.76 231.08 106.87C230.47 107.54 230.05 108.23 229.83 108.95C229.61 109.67 229.45 110.38 229.37 111.08C229.29 111.78 229.25 112.44 229.25 113.08C229.25 113.72 229.17 114.35 229 114.96C228.44 116.68 227.42 117.32 225.91 116.88C225.24 116.71 224.77 116.28 224.49 115.59C224.21 114.9 224.21 114.05 224.49 113.05C224.66 112.33 225 111.49 225.53 110.55C226.06 109.61 226.88 108.58 227.99 107.46C231.33 104.12 235.44 102.46 240.34 102.46C243.23 102.46 245.79 103.02 248.01 104.13C246.01 101.35 245.23 98.21 245.67 94.7C246.11 91.7 247.39 89.24 249.51 87.32C251.62 85.4 254.57 84.44 258.35 84.44C262.63 84.44 266.01 85.72 268.48 88.28C270.95 90.84 272.19 94.29 272.19 98.62V140C272.19 140.5 272.2 141.01 272.23 141.54C272.26 142.07 272.35 142.57 272.52 143.04C272.69 143.51 272.96 143.89 273.35 144.17C273.74 144.45 274.3 144.59 275.02 144.59V145.01H264.68V144.59C265.4 144.59 265.96 144.45 266.35 144.17C266.74 143.89 267.02 143.52 267.18 143.04C267.35 142.57 267.44 142.07 267.47 141.54C267.5 141.01 267.51 140.5 267.51 140V98.62C267.51 94.17 266.72 90.83 265.13 88.61C263.55 86.39 261.08 85.27 257.75 85.27C254.63 85.27 252.12 86.12 250.2 87.81C248.28 89.51 247.07 91.66 246.57 94.27C245.79 98.44 247.1 102.22 250.49 105.62L250.99 106.12C252.44 107.4 253.53 108.91 254.28 110.67C255.03 112.42 255.41 114.41 255.41 116.63V139.4C255.41 141.35 255.59 142.77 255.95 143.65C256.31 144.54 256.88 144.98 257.66 144.98C258.27 144.98 258.77 144.79 259.16 144.4C259.55 144.01 259.88 143.59 260.16 143.15H260.66C260.33 143.93 259.8 144.57 259.08 145.07C258.36 145.57 257.3 145.82 255.91 145.82C254.3 145.82 253.03 145.35 252.11 144.4C251.19 143.45 250.73 141.79 250.73 139.4V134.4C249.73 137.9 248.21 140.68 246.18 142.74C244.15 144.8 241.24 145.83 237.46 145.83C233.29 145.83 229.94 144.86 227.41 142.91C224.88 140.96 223.62 138.35 223.62 135.07L223.66 135.06ZM250.77 118.21C248.49 118.88 245.96 119.66 243.18 120.55C240.4 121.44 237.87 122.5 235.59 123.72C233.14 125 231.38 126.45 230.29 128.06C229.21 129.67 228.66 131.7 228.66 134.15C228.66 137.49 229.52 140.13 231.25 142.07C232.97 144.02 235.28 144.99 238.17 144.99C240.28 144.99 242.13 144.48 243.72 143.45C245.3 142.42 246.61 141.09 247.64 139.45C248.67 137.81 249.45 136.02 249.98 134.07C250.51 132.12 250.77 130.23 250.77 128.4V118.22V118.21Z" fill="black"/>
<path d="M288.56 103.28H293.65V103.7H288.56V139.49C288.56 143.16 289.62 145 291.73 145C293.12 145 294.34 144.11 295.4 142.33H295.82C294.93 144.66 293.09 145.83 290.31 145.83C288.36 145.83 286.81 145.25 285.64 144.08C284.47 142.91 283.89 141.36 283.89 139.41V108.29C283.89 107.79 283.88 107.28 283.85 106.75C283.82 106.22 283.73 105.72 283.56 105.25C283.39 104.78 283.11 104.4 282.73 104.12C282.34 103.84 281.78 103.7 281.06 103.7V103.28C283.01 103.28 284.61 102.42 285.86 100.69C287.11 98.96 287.74 96.77 287.74 94.1H288.57V103.28H288.56Z" fill="black"/>
<path d="M325.85 134.39C324.85 137.89 323.33 140.67 321.3 142.73C319.27 144.79 316.36 145.82 312.58 145.82C308.41 145.82 305.06 144.83 302.53 142.86C300 140.89 298.74 138.15 298.74 134.64C298.74 132.14 299.34 129.98 300.53 128.18C301.73 126.37 303.24 124.84 305.08 123.59C306.91 122.34 308.93 121.28 311.13 120.42C313.33 119.56 315.43 118.82 317.43 118.21L314.84 118.29C312.11 118.4 309.92 117.82 308.25 116.54C306.58 115.26 305.75 113.54 305.75 111.37C305.75 110.09 306.05 108.9 306.67 107.78C307.28 106.67 308.09 105.72 309.09 104.94C310.09 104.16 311.26 103.55 312.59 103.11C313.92 102.67 315.31 102.44 316.76 102.44C318.82 102.44 320.69 102.79 322.39 103.48C324.09 104.18 325.53 105.15 326.73 106.4C327.93 107.65 328.86 109.14 329.52 110.86C330.19 112.58 330.52 114.5 330.52 116.62V139.39C330.52 141.34 330.7 142.76 331.06 143.64C331.42 144.53 331.99 144.97 332.77 144.97C333.38 144.97 333.88 144.78 334.27 144.39C334.66 144 334.99 143.58 335.27 143.14H335.77C335.44 143.92 334.91 144.56 334.19 145.06C333.47 145.56 332.41 145.81 331.02 145.81C329.41 145.81 328.14 145.34 327.22 144.39C326.3 143.44 325.84 141.78 325.84 139.39V134.39H325.85ZM320.76 118.12C318.76 118.68 316.74 119.34 314.71 120.12C312.68 120.9 310.86 121.89 309.25 123.08C307.64 124.28 306.32 125.72 305.29 127.42C304.26 129.12 303.75 131.19 303.75 133.63C303.75 137.19 304.61 139.97 306.34 141.97C308.06 143.97 310.37 144.97 313.26 144.97C315.37 144.97 317.22 144.46 318.81 143.43C320.39 142.4 321.7 141.07 322.73 139.43C323.76 137.79 324.54 136 325.07 134.05C325.6 132.1 325.86 130.21 325.86 128.38V116.62C325.86 107.72 322.77 103.27 316.6 103.27C315.27 103.27 314 103.49 312.8 103.94C311.6 104.39 310.55 104.98 309.63 105.73C308.71 106.48 307.97 107.34 307.42 108.32C306.86 109.29 306.59 110.34 306.59 111.45C306.59 113.23 307.31 114.68 308.76 115.79C310.21 116.9 312.15 117.43 314.6 117.37L320.77 117.29V118.12H320.76Z" fill="black"/>
<path d="M0 80.15C0.72 80.15 1.28 80.01 1.67 79.73C2.06 79.45 2.34 79.08 2.5 78.6C2.66 78.12 2.76 77.63 2.79 77.1C2.82 76.57 2.83 76.06 2.83 75.56V27.18C2.83 26.68 2.82 26.17 2.79 25.64C2.76 25.11 2.67 24.61 2.5 24.14C2.33 23.67 2.05 23.29 1.67 23.01C1.28 22.73 0.72 22.59 0 22.59V22.17H10.68V22.59C9.96 22.59 9.4 22.73 9.01 23.01C8.62 23.29 8.34 23.66 8.18 24.14C8.01 24.61 7.92 25.11 7.89 25.64C7.86 26.17 7.85 26.68 7.85 27.18V50.54H45.39V27.18C45.39 26.68 45.38 26.17 45.35 25.64C45.32 25.11 45.23 24.61 45.06 24.14C44.89 23.67 44.61 23.29 44.23 23.01C43.84 22.73 43.28 22.59 42.56 22.59V22.17H53.24V22.59C52.52 22.59 51.96 22.73 51.57 23.01C51.18 23.29 50.9 23.66 50.74 24.14C50.57 24.61 50.48 25.11 50.45 25.64C50.42 26.17 50.41 26.68 50.41 27.18V75.56C50.41 76.06 50.42 76.57 50.45 77.1C50.48 77.63 50.57 78.13 50.74 78.6C50.91 79.07 51.18 79.45 51.57 79.73C51.96 80.01 52.52 80.15 53.24 80.15V80.57H42.56V80.15C43.28 80.15 43.84 80.01 44.23 79.73C44.62 79.45 44.9 79.08 45.06 78.6C45.22 78.12 45.32 77.63 45.35 77.1C45.38 76.57 45.39 76.06 45.39 75.56V52.2H7.84V75.56C7.84 76.06 7.85 76.57 7.88 77.1C7.91 77.63 8 78.13 8.17 78.6C8.34 79.07 8.61 79.45 9 79.73C9.39 80.01 9.94 80.15 10.67 80.15V80.57H0V80.15Z" fill="#FF5C00"/>
<path d="M59.56 59.79C59.56 56.79 60.09 53.97 61.14 51.32C62.2 48.68 63.64 46.39 65.48 44.44C67.32 42.49 69.46 40.95 71.9 39.81C74.35 38.67 76.96 38.1 79.74 38.1C82.52 38.1 85.13 38.67 87.58 39.81C90.03 40.95 92.17 42.49 94 44.44C95.84 46.39 97.28 48.68 98.34 51.32C99.4 53.96 99.92 56.78 99.92 59.79C99.92 62.8 99.39 65.62 98.34 68.26C97.28 70.9 95.84 73.2 94 75.14C92.17 77.09 90.02 78.63 87.58 79.77C85.13 80.91 82.52 81.48 79.74 81.48C76.96 81.48 74.35 80.91 71.9 79.77C69.45 78.63 67.31 77.09 65.48 75.14C63.65 73.19 62.2 70.9 61.14 68.26C60.08 65.62 59.56 62.8 59.56 59.79ZM64.31 59.79C64.53 62.68 65.16 65.39 66.19 67.92C67.22 70.45 68.5 72.66 70.03 74.55C71.56 76.44 73.31 77.93 75.28 79.01C77.25 80.09 79.3 80.64 81.41 80.64C83.52 80.64 85.47 80.1 87.25 79.01C89.03 77.93 90.54 76.44 91.8 74.55C93.05 72.66 93.98 70.45 94.59 67.92C95.2 65.39 95.4 62.68 95.17 59.79C94.95 56.9 94.32 54.19 93.29 51.66C92.26 49.13 90.98 46.92 89.45 45.03C87.92 43.14 86.17 41.65 84.19 40.57C82.22 39.49 80.17 38.94 78.06 38.94C75.95 38.94 74 39.48 72.22 40.57C70.44 41.65 68.93 43.14 67.67 45.03C66.42 46.92 65.49 49.13 64.88 51.66C64.27 54.19 64.07 56.9 64.3 59.79H64.31Z" fill="#FF5C00"/>
<path d="M113.78 75.56C113.78 76.06 113.79 76.57 113.82 77.1C113.85 77.63 113.94 78.13 114.11 78.6C114.28 79.07 114.55 79.45 114.94 79.73C115.33 80.01 115.88 80.15 116.61 80.15V80.57H106.27V80.15C106.99 80.15 107.55 80.01 107.94 79.73C108.33 79.45 108.61 79.08 108.77 78.6C108.93 78.12 109.03 77.63 109.06 77.1C109.09 76.57 109.1 76.06 109.1 75.56V25.34C109.1 24.84 109.09 24.33 109.06 23.8C109.03 23.27 108.94 22.77 108.77 22.3C108.6 21.83 108.32 21.45 107.94 21.17C107.55 20.89 106.99 20.75 106.27 20.75V20.33C108.55 20.33 110.3 20.04 111.53 19.45C112.75 18.87 113.36 18.38 113.36 17.99H113.78V75.55V75.56Z" fill="#FF5C00"/>
<path d="M130.97 75.56C130.97 76.06 130.98 76.57 131.01 77.1C131.04 77.63 131.13 78.13 131.3 78.6C131.47 79.07 131.74 79.45 132.13 79.73C132.52 80.01 133.07 80.15 133.8 80.15V80.57H123.46V80.15C124.18 80.15 124.74 80.01 125.13 79.73C125.52 79.45 125.8 79.08 125.96 78.6C126.12 78.12 126.22 77.63 126.25 77.1C126.28 76.57 126.29 76.06 126.29 75.56V43.86C126.29 43.36 126.28 42.85 126.25 42.32C126.22 41.79 126.13 41.29 125.96 40.82C125.79 40.35 125.51 39.97 125.13 39.69C124.74 39.41 124.18 39.27 123.46 39.27V38.85C125.41 38.85 127.07 38.63 128.46 38.18C129.85 37.74 130.55 37.21 130.55 36.6H130.97V75.56ZM124.8 28.01C127.3 28.01 128.55 26.7 128.55 24.09C128.55 26.71 129.8 28.01 132.3 28.01C129.8 28.01 128.55 29.26 128.55 31.76C128.55 29.26 127.3 28.01 124.8 28.01Z" fill="#FF5C00"/>
<path d="M172.43 74.31C171.15 76.54 169.41 78.27 167.22 79.52C165.02 80.77 162.48 81.4 159.59 81.4C156.86 81.4 154.32 80.84 151.96 79.73C149.59 78.62 147.54 77.07 145.79 75.1C144.04 73.13 142.66 70.82 141.66 68.18C140.66 65.54 140.16 62.69 140.16 59.63C140.16 56.57 140.63 53.82 141.58 51.21C142.52 48.6 143.83 46.32 145.5 44.37C147.17 42.42 149.12 40.88 151.34 39.74C153.56 38.6 155.96 38.03 158.51 38.03C161.96 38.03 164.9 39.04 167.35 41.07C169.8 43.1 171.49 45.84 172.44 49.29V25.34C172.44 24.84 172.43 24.33 172.4 23.8C172.37 23.27 172.28 22.77 172.11 22.3C171.94 21.83 171.66 21.45 171.28 21.17C170.89 20.89 170.33 20.75 169.61 20.75V20.33C171.89 20.33 173.64 20.04 174.87 19.45C176.09 18.87 176.7 18.38 176.7 17.99H177.12V80.55L172.45 74.29L172.43 74.31ZM172.43 55.04C172.43 52.59 172.07 50.38 171.35 48.41C170.63 46.44 169.65 44.74 168.43 43.32C167.21 41.9 165.79 40.8 164.18 40.03C162.57 39.25 160.87 38.86 159.09 38.86C157.03 38.86 155.14 39.37 153.42 40.4C151.7 41.43 150.22 42.86 149 44.7C147.78 46.53 146.83 48.75 146.16 51.33C145.49 53.92 145.16 56.77 145.16 59.88C145.16 62.99 145.52 65.91 146.24 68.47C146.96 71.03 147.98 73.21 149.28 75.02C150.59 76.83 152.16 78.2 153.99 79.15C155.83 80.1 157.88 80.57 160.16 80.57C163 80.52 165.47 79.78 167.58 78.36C169.69 76.94 171.31 75.01 172.42 72.56V55.04H172.43Z" fill="#FF5C00"/>
<path d="M213.38 69.97C212.38 73.47 210.86 76.25 208.83 78.31C206.8 80.37 203.89 81.4 200.11 81.4C195.94 81.4 192.59 80.41 190.06 78.44C187.53 76.47 186.27 73.73 186.27 70.22C186.27 67.72 186.87 65.56 188.06 63.76C189.26 61.95 190.77 60.42 192.61 59.17C194.44 57.92 196.46 56.86 198.66 56C200.86 55.14 202.96 54.4 204.96 53.79L202.37 53.87C199.64 53.98 197.45 53.4 195.78 52.12C194.11 50.84 193.28 49.12 193.28 46.95C193.28 45.67 193.58 44.48 194.2 43.36C194.81 42.25 195.62 41.3 196.62 40.52C197.62 39.74 198.79 39.13 200.12 38.69C201.45 38.25 202.84 38.02 204.29 38.02C206.35 38.02 208.22 38.37 209.92 39.06C211.62 39.76 213.06 40.73 214.26 41.98C215.46 43.23 216.39 44.72 217.05 46.44C217.72 48.16 218.05 50.08 218.05 52.2V74.97C218.05 76.92 218.23 78.34 218.59 79.22C218.95 80.11 219.52 80.55 220.3 80.55C220.91 80.55 221.41 80.36 221.8 79.97C222.19 79.58 222.52 79.16 222.8 78.72H223.3C222.97 79.5 222.44 80.14 221.72 80.64C221 81.14 219.94 81.39 218.55 81.39C216.94 81.39 215.67 80.92 214.75 79.97C213.83 79.02 213.37 77.36 213.37 74.97V69.97H213.38ZM208.29 53.7C206.29 54.26 204.27 54.92 202.24 55.7C200.21 56.48 198.39 57.47 196.78 58.66C195.17 59.86 193.85 61.3 192.82 63C191.79 64.7 191.28 66.77 191.28 69.21C191.28 72.77 192.14 75.55 193.87 77.55C195.59 79.55 197.9 80.55 200.79 80.55C202.9 80.55 204.75 80.04 206.34 79.01C207.92 77.98 209.23 76.65 210.26 75.01C211.29 73.37 212.07 71.58 212.6 69.63C213.13 67.68 213.39 65.79 213.39 63.96V52.2C213.39 43.3 210.3 38.85 204.13 38.85C202.8 38.85 201.53 39.07 200.33 39.52C199.13 39.97 198.08 40.56 197.16 41.31C196.24 42.06 195.5 42.92 194.95 43.9C194.39 44.87 194.12 45.92 194.12 47.03C194.12 48.81 194.84 50.26 196.29 51.37C197.74 52.48 199.68 53.01 202.13 52.95L208.3 52.87V53.7H208.29Z" fill="#FF5C00"/>
<path d="M225.48 42.52C225.09 41.69 224.52 40.94 223.77 40.27C223.02 39.6 222.09 39.27 220.98 39.27V38.85H231.99V39.27C230.88 39.27 230.28 39.62 230.2 40.31C230.12 41.01 230.27 41.74 230.66 42.52L244.92 74.72L259.18 42.52C259.57 41.74 259.72 41.01 259.64 40.31C259.56 39.61 258.96 39.27 257.85 39.27V38.85H265.52V39.27C264.41 39.27 263.49 39.59 262.77 40.23C262.05 40.87 261.49 41.61 261.1 42.44L240.91 88.15C240.35 89.48 239.69 90.83 238.91 92.2C238.13 93.56 237.23 94.8 236.2 95.91C235.17 97.02 234.02 97.94 232.74 98.66C231.46 99.38 230.01 99.74 228.4 99.74C226.9 99.74 225.26 99.41 223.48 98.74C222.53 98.35 221.82 97.85 221.35 97.24C220.88 96.63 220.75 95.96 220.97 95.24C221.3 94.07 222.05 93.49 223.22 93.49C224.05 93.49 224.89 93.68 225.72 94.07C227 94.63 228.07 95.04 228.93 95.32C229.79 95.6 230.58 95.74 231.31 95.74C232.14 95.74 232.88 95.53 233.52 95.11C234.16 94.69 234.84 94.04 235.56 93.15C236.06 92.54 236.55 91.87 237.02 91.15C237.49 90.43 237.99 89.57 238.52 88.56C239.05 87.55 239.62 86.42 240.23 85.14C240.84 83.86 241.54 82.33 242.31 80.55L225.46 42.51L225.48 42.52Z" fill="#FF5C00"/>
<path d="M294.63 45.11C294.91 46.06 294.94 46.89 294.71 47.61C294.49 48.33 293.99 48.75 293.21 48.86C291.65 49.14 290.57 48.25 289.96 46.19C289.24 43.63 288.12 41.77 286.62 40.6C285.12 39.43 283.28 38.85 281.11 38.85C278.44 38.85 276.3 39.57 274.69 41.02C273.08 42.47 272.27 44.27 272.27 46.44C272.27 47.83 272.62 49.07 273.31 50.15C274.01 51.23 274.94 52.22 276.1 53.11C277.26 54 278.59 54.81 280.06 55.53C281.53 56.25 283.05 56.98 284.61 57.7C286.11 58.42 287.6 59.19 289.07 59.99C290.54 60.8 291.84 61.7 292.95 62.7C294.06 63.7 294.96 64.84 295.66 66.12C296.35 67.4 296.7 68.87 296.7 70.54C296.7 73.77 295.43 76.38 292.9 78.38C290.37 80.38 286.91 81.38 282.51 81.38C280.95 81.38 279.24 81.2 277.38 80.84C275.52 80.48 273.78 79.89 272.17 79.09C270.56 78.28 269.17 77.23 268 75.92C266.83 74.61 266.14 73.01 265.92 71.12C265.81 70.18 265.88 69.37 266.13 68.7C266.38 68.03 266.84 67.62 267.51 67.45C269.4 67.01 270.48 68.23 270.76 71.12C271.04 73.85 272.23 76.1 274.35 77.88C276.46 79.66 279.1 80.55 282.27 80.55C285.27 80.55 287.73 79.77 289.65 78.21C291.57 76.65 292.53 74.65 292.53 72.2C292.53 70.87 292.24 69.68 291.65 68.66C291.06 67.64 290.27 66.7 289.27 65.87C288.27 65.04 287.11 64.26 285.81 63.53C284.5 62.81 283.13 62.11 281.68 61.45C279.96 60.62 278.27 59.8 276.63 58.99C274.99 58.18 273.53 57.27 272.25 56.24C270.97 55.21 269.93 54.04 269.12 52.74C268.31 51.43 267.91 49.89 267.91 48.11C267.91 46.5 268.26 45.07 268.95 43.81C269.65 42.56 270.59 41.5 271.79 40.64C272.99 39.78 274.39 39.13 276 38.68C277.61 38.24 279.34 38.01 281.17 38.01C283 38.01 284.58 38.19 286.05 38.55C287.52 38.91 288.84 39.41 290.01 40.05C291.18 40.69 292.15 41.44 292.93 42.3C293.71 43.16 294.26 44.09 294.6 45.09L294.63 45.11Z" fill="#FF5C00"/>
</g>
<defs>
<clipPath id="clip0_78_510">
<rect width="317.59" height="174.52" fill="white" transform="translate(9)"/>
</clipPath>
<clipPath id="clip1_78_510">
<rect width="335.77" height="139.08" fill="white" transform="translate(0 18)"/>
</clipPath>
</defs>
</svg>
