<svg width="32" height="32" viewBox="0 0 32 32" fill="none" xmlns="http://www.w3.org/2000/svg">
<g clip-path="url(#clip0_32_582)">
<path fill-rule="evenodd" clip-rule="evenodd" d="M15.9623 2.74684C17.2819 2.74684 18.4884 3.33611 19.5246 4.29385C21.4667 6.08828 23.2119 9.21156 24.6365 12.3322C26.0851 15.5047 27.2889 18.8687 28.095 21.3096C28.9889 24.0139 27.8196 26.8938 25.4293 28.3277C24.1908 29.074 22.7293 29.3612 21.3005 29.1389C19.8716 28.9167 18.5664 28.1992 17.6131 27.1119C17.0614 26.4804 16.5112 25.8477 15.9623 25.2137C15.3983 25.8655 14.8343 26.5133 14.3102 27.1119C13.357 28.1988 12.052 28.9161 10.6235 29.1384C9.19497 29.3606 7.73378 29.0737 6.49538 28.3277C4.10503 26.8938 2.9358 24.0139 3.82968 21.3096C4.63578 18.8687 5.8396 15.5047 7.28817 12.3322C8.71281 9.21156 10.4554 6.08828 12.3974 4.29385C13.435 3.33611 14.6415 2.74684 15.961 2.74684H15.9623ZM17.7129 23.1706C18.5509 22.1796 19.2692 21.307 19.6869 20.7496C20.9372 19.0829 21.2578 16.9586 20.6366 15.1894C19.9901 13.3484 18.3394 11.9704 15.9623 11.9704C13.5853 11.9704 11.9345 13.3484 11.2881 15.1894C10.6669 16.9586 10.9861 19.0829 12.2378 20.7496C12.6542 21.307 13.3725 22.1796 14.2118 23.1706C13.5733 23.9101 12.9189 24.6604 12.3096 25.3601C11.767 25.978 11.0243 26.3853 10.2116 26.5108C9.39885 26.6363 8.56788 26.4719 7.86415 26.0464C6.48873 25.2217 5.87152 23.6095 6.35571 22.1437C7.14717 19.7493 8.31641 16.485 9.70779 13.4376C11.1218 10.3382 12.6848 7.65125 14.2038 6.2479C14.8902 5.61473 15.4821 5.40722 15.9623 5.40722C16.4412 5.40722 17.0331 5.61473 17.7208 6.2479C19.2399 7.65125 20.8016 10.3396 22.2169 13.4376C23.6083 16.485 24.7775 19.7493 25.569 22.1437C26.0531 23.6095 25.4359 25.2204 24.0605 26.0464C23.3569 26.4716 22.5262 26.6357 21.7138 26.5103C20.9014 26.3848 20.1589 25.9776 19.6164 25.3601C19.0045 24.6617 18.3514 23.9101 17.7129 23.1706ZM15.9623 21.1194C15.4144 20.4776 14.8822 19.8225 14.3661 19.1547C13.6212 18.1624 13.4842 16.9612 13.7981 16.0713C14.0868 15.2493 14.7638 14.6321 15.9623 14.6321C17.1595 14.6321 17.8379 15.2493 18.1266 16.0713C18.4391 16.9626 18.3021 18.1624 17.5586 19.1547C17.0428 19.8227 16.5105 20.4778 15.9623 21.1194Z" fill="white"/>
</g>
<defs>
<clipPath id="clip0_32_582">
<rect width="31.9245" height="31.9245" fill="white"/>
</clipPath>
</defs>
</svg>
