<svg width="25" height="24" viewBox="0 0 25 24" fill="none" xmlns="http://www.w3.org/2000/svg">
<path d="M8.78248 15.9008C8.78248 16.6915 8.46836 17.4499 7.90924 18.009C7.35012 18.5681 6.59179 18.8822 5.80108 18.8822M16.7329 15.9008C16.7329 16.6915 17.047 17.4499 17.6061 18.009C18.1652 18.5681 18.9236 18.8822 19.7143 18.8822M12.7577 15.9008V19.876M3.81348 6.95661C3.81348 6.42946 4.02288 5.92391 4.39563 5.55116C4.76838 5.17842 5.27393 4.96901 5.80108 4.96901H19.7143C20.2414 4.96901 20.747 5.17842 21.1197 5.55116C21.4925 5.92391 21.7019 6.42946 21.7019 6.95661V10.9318C21.7019 11.459 21.4925 11.9645 21.1197 12.3373C20.747 12.71 20.2414 12.9194 19.7143 12.9194H5.80108C5.27393 12.9194 4.76838 12.71 4.39563 12.3373C4.02288 11.9645 3.81348 11.459 3.81348 10.9318V6.95661Z" stroke="#FF5C00" stroke-width="1.9876" stroke-linecap="round" stroke-linejoin="round"/>
<path d="M7.78857 12.9196V9.93816C7.78857 9.67459 7.89328 9.42181 8.07965 9.23544C8.26603 9.04906 8.5188 8.94436 8.78237 8.94436H16.7328C16.9963 8.94436 17.2491 9.04906 17.4355 9.23544C17.6219 9.42181 17.7266 9.67459 17.7266 9.93816V12.9196" stroke="#FF5C00" stroke-width="1.9876" stroke-linecap="round" stroke-linejoin="round"/>
</svg>
